%TF.GenerationSoftware,KiCad,Pcbnew,(5.1.6-0-10_14)*%
%TF.CreationDate,2020-09-23T23:55:55+02:00*%
%TF.ProjectId,a2k6-cart,61326b36-2d63-4617-9274-2e6b69636164,rev?*%
%TF.SameCoordinates,Original*%
%TF.FileFunction,Copper,L1,Top*%
%TF.FilePolarity,Positive*%
%FSLAX46Y46*%
G04 Gerber Fmt 4.6, Leading zero omitted, Abs format (unit mm)*
G04 Created by KiCad (PCBNEW (5.1.6-0-10_14)) date 2020-09-23 23:55:55*
%MOMM*%
%LPD*%
G01*
G04 APERTURE LIST*
%TA.AperFunction,ComponentPad*%
%ADD10O,1.600000X2.400000*%
%TD*%
%TA.AperFunction,ComponentPad*%
%ADD11R,1.600000X2.400000*%
%TD*%
%TA.AperFunction,ConnectorPad*%
%ADD12R,1.524000X6.350000*%
%TD*%
%TA.AperFunction,ViaPad*%
%ADD13C,1.200000*%
%TD*%
%TA.AperFunction,ViaPad*%
%ADD14C,0.800000*%
%TD*%
%TA.AperFunction,Conductor*%
%ADD15C,0.500000*%
%TD*%
%TA.AperFunction,Conductor*%
%ADD16C,1.000000*%
%TD*%
%TA.AperFunction,Conductor*%
%ADD17C,0.250000*%
%TD*%
%TA.AperFunction,Conductor*%
%ADD18C,0.750000*%
%TD*%
G04 APERTURE END LIST*
D10*
%TO.P,U2,14*%
%TO.N,+5V*%
X160274000Y-81026000D03*
%TO.P,U2,7*%
%TO.N,GND*%
X145034000Y-88646000D03*
%TO.P,U2,13*%
%TO.N,N/C*%
X157734000Y-81026000D03*
%TO.P,U2,6*%
X147574000Y-88646000D03*
%TO.P,U2,12*%
X155194000Y-81026000D03*
%TO.P,U2,5*%
X150114000Y-88646000D03*
%TO.P,U2,11*%
X152654000Y-81026000D03*
%TO.P,U2,4*%
X152654000Y-88646000D03*
%TO.P,U2,10*%
X150114000Y-81026000D03*
%TO.P,U2,3*%
X155194000Y-88646000D03*
%TO.P,U2,9*%
X147574000Y-81026000D03*
%TO.P,U2,2*%
%TO.N,Net-(U1-Pad18)*%
X157734000Y-88646000D03*
%TO.P,U2,8*%
%TO.N,N/C*%
X145034000Y-81026000D03*
D11*
%TO.P,U2,1*%
%TO.N,Net-(J1-PadA12)*%
X160274000Y-88646000D03*
%TD*%
D10*
%TO.P,U1,24*%
%TO.N,+5V*%
X166624000Y-92456000D03*
%TO.P,U1,12*%
%TO.N,GND*%
X138684000Y-77216000D03*
%TO.P,U1,23*%
%TO.N,Net-(J1-PadA8)*%
X164084000Y-92456000D03*
%TO.P,U1,11*%
%TO.N,D2*%
X141224000Y-77216000D03*
%TO.P,U1,22*%
%TO.N,Net-(J1-PadA9)*%
X161544000Y-92456000D03*
%TO.P,U1,10*%
%TO.N,D1*%
X143764000Y-77216000D03*
%TO.P,U1,21*%
%TO.N,Net-(J1-PadA11)*%
X159004000Y-92456000D03*
%TO.P,U1,9*%
%TO.N,D0*%
X146304000Y-77216000D03*
%TO.P,U1,20*%
%TO.N,GND*%
X156464000Y-92456000D03*
%TO.P,U1,8*%
%TO.N,Net-(J1-PadA0)*%
X148844000Y-77216000D03*
%TO.P,U1,19*%
%TO.N,Net-(J1-PadA10)*%
X153924000Y-92456000D03*
%TO.P,U1,7*%
%TO.N,Net-(J1-PadA1)*%
X151384000Y-77216000D03*
%TO.P,U1,18*%
%TO.N,Net-(U1-Pad18)*%
X151384000Y-92456000D03*
%TO.P,U1,6*%
%TO.N,Net-(J1-PadA2)*%
X153924000Y-77216000D03*
%TO.P,U1,17*%
%TO.N,D7*%
X148844000Y-92456000D03*
%TO.P,U1,5*%
%TO.N,Net-(J1-PadA3)*%
X156464000Y-77216000D03*
%TO.P,U1,16*%
%TO.N,D6*%
X146304000Y-92456000D03*
%TO.P,U1,4*%
%TO.N,Net-(J1-PadA4)*%
X159004000Y-77216000D03*
%TO.P,U1,15*%
%TO.N,D5*%
X143764000Y-92456000D03*
%TO.P,U1,3*%
%TO.N,Net-(J1-PadA5)*%
X161544000Y-77216000D03*
%TO.P,U1,14*%
%TO.N,D4*%
X141224000Y-92456000D03*
%TO.P,U1,2*%
%TO.N,Net-(J1-PadA6)*%
X164084000Y-77216000D03*
%TO.P,U1,13*%
%TO.N,D3*%
X138684000Y-92456000D03*
D11*
%TO.P,U1,1*%
%TO.N,Net-(J1-PadA7)*%
X166624000Y-77216000D03*
%TD*%
D12*
%TO.P,J1,SGND*%
%TO.N,GND*%
X166624000Y-117856000D03*
%TO.P,J1,+5V*%
%TO.N,+5V*%
X164084000Y-117856000D03*
%TO.P,J1,A8*%
%TO.N,Net-(J1-PadA8)*%
X161544000Y-117856000D03*
%TO.P,J1,A9*%
%TO.N,Net-(J1-PadA9)*%
X159004000Y-117856000D03*
%TO.P,J1,A11*%
%TO.N,Net-(J1-PadA11)*%
X156464000Y-117856000D03*
%TO.P,J1,A10*%
%TO.N,Net-(J1-PadA10)*%
X153924000Y-117856000D03*
%TO.P,J1,A12*%
%TO.N,Net-(J1-PadA12)*%
X151384000Y-117856000D03*
%TO.P,J1,D7*%
%TO.N,D7*%
X148844000Y-117856000D03*
%TO.P,J1,D6*%
%TO.N,D6*%
X146304000Y-117856000D03*
%TO.P,J1,D5*%
%TO.N,D5*%
X143764000Y-117856000D03*
%TO.P,J1,D4*%
%TO.N,D4*%
X141224000Y-117856000D03*
%TO.P,J1,D3*%
%TO.N,D3*%
X138684000Y-117856000D03*
%TD*%
D13*
%TO.N,+5V*%
X166624000Y-87122000D03*
%TO.N,GND*%
X135636000Y-97028000D03*
D14*
%TO.N,Net-(U1-Pad18)*%
X154178000Y-90678000D03*
%TD*%
D15*
%TO.N,D3*%
X138684000Y-117856000D02*
X138684000Y-92456000D01*
%TO.N,D4*%
X141224000Y-117856000D02*
X141224000Y-92456000D01*
%TO.N,D5*%
X143764000Y-117856000D02*
X143764000Y-92456000D01*
%TO.N,D6*%
X146304000Y-117856000D02*
X146304000Y-92456000D01*
%TO.N,D7*%
X148844000Y-117856000D02*
X148844000Y-92456000D01*
%TO.N,Net-(J1-PadA12)*%
X158623990Y-86995990D02*
X160274000Y-88646000D01*
X154676229Y-86995990D02*
X158623990Y-86995990D01*
X153943990Y-89523791D02*
X153943990Y-87728229D01*
X152634010Y-90833771D02*
X153943990Y-89523791D01*
X153943990Y-87728229D02*
X154676229Y-86995990D01*
X152634010Y-93745990D02*
X152634010Y-90833771D01*
X151384000Y-117856000D02*
X151384000Y-94996000D01*
X151384000Y-94996000D02*
X152634010Y-93745990D01*
%TO.N,Net-(J1-PadA10)*%
X153924000Y-117856000D02*
X153924000Y-92456000D01*
%TO.N,Net-(J1-PadA11)*%
X156464000Y-94996000D02*
X159004000Y-92456000D01*
X156464000Y-117856000D02*
X156464000Y-94996000D01*
%TO.N,Net-(J1-PadA9)*%
X159004000Y-94996000D02*
X161544000Y-92456000D01*
X159004000Y-117856000D02*
X159004000Y-94996000D01*
%TO.N,Net-(J1-PadA8)*%
X161544000Y-94996000D02*
X164084000Y-92456000D01*
X161544000Y-117856000D02*
X161544000Y-94996000D01*
D16*
%TO.N,+5V*%
X164084000Y-94996000D02*
X166624000Y-92456000D01*
X164084000Y-117856000D02*
X164084000Y-94996000D01*
X160528000Y-81026000D02*
X166624000Y-87122000D01*
D15*
X160274000Y-81026000D02*
X160528000Y-81026000D01*
D16*
%TO.N,GND*%
X166624000Y-117856000D02*
X166624000Y-99060000D01*
D17*
X138684000Y-77216000D02*
X138684000Y-77470000D01*
D18*
X156464000Y-92456000D02*
X158239010Y-90680990D01*
X158239010Y-90680990D02*
X169669010Y-90680990D01*
D16*
X169672000Y-90678000D02*
X169672000Y-81026000D01*
D18*
X169669010Y-90680990D02*
X169672000Y-90678000D01*
D16*
X169672000Y-96012000D02*
X169672000Y-90678000D01*
X166624000Y-99060000D02*
X169672000Y-96012000D01*
X135636000Y-74676000D02*
X135636000Y-76708000D01*
X169672000Y-74676000D02*
X135636000Y-74676000D01*
X169672000Y-81026000D02*
X169672000Y-74676000D01*
X138684000Y-77216000D02*
X135636000Y-77216000D01*
X145034000Y-88646000D02*
X135636000Y-88646000D01*
X135636000Y-88646000D02*
X135636000Y-97028000D01*
X135636000Y-76708000D02*
X135636000Y-88646000D01*
D15*
%TO.N,Net-(U1-Pad18)*%
X157734000Y-88646000D02*
X157734000Y-88900000D01*
X155956000Y-90678000D02*
X154178000Y-90678000D01*
X157734000Y-88900000D02*
X155956000Y-90678000D01*
%TD*%
M02*
