%TF.GenerationSoftware,KiCad,Pcbnew,(5.1.6-0-10_14)*%
%TF.CreationDate,2020-09-23T23:55:55+02:00*%
%TF.ProjectId,a2k6-cart,61326b36-2d63-4617-9274-2e6b69636164,rev?*%
%TF.SameCoordinates,Original*%
%TF.FileFunction,Legend,Top*%
%TF.FilePolarity,Positive*%
%FSLAX46Y46*%
G04 Gerber Fmt 4.6, Leading zero omitted, Abs format (unit mm)*
G04 Created by KiCad (PCBNEW (5.1.6-0-10_14)) date 2020-09-23 23:55:55*
%MOMM*%
%LPD*%
G01*
G04 APERTURE LIST*
%ADD10C,0.150000*%
%ADD11C,0.010000*%
%ADD12C,0.120000*%
G04 APERTURE END LIST*
D10*
X133262666Y-98368761D02*
X133262666Y-97892571D01*
X133548380Y-98464000D02*
X132548380Y-98130666D01*
X133548380Y-97797333D01*
X132643619Y-97511619D02*
X132596000Y-97464000D01*
X132548380Y-97368761D01*
X132548380Y-97130666D01*
X132596000Y-97035428D01*
X132643619Y-96987809D01*
X132738857Y-96940190D01*
X132834095Y-96940190D01*
X132976952Y-96987809D01*
X133548380Y-97559238D01*
X133548380Y-96940190D01*
X133548380Y-96511619D02*
X132548380Y-96511619D01*
X133167428Y-96416380D02*
X133548380Y-96130666D01*
X132881714Y-96130666D02*
X133262666Y-96511619D01*
X132548380Y-95273523D02*
X132548380Y-95464000D01*
X132596000Y-95559238D01*
X132643619Y-95606857D01*
X132786476Y-95702095D01*
X132976952Y-95749714D01*
X133357904Y-95749714D01*
X133453142Y-95702095D01*
X133500761Y-95654476D01*
X133548380Y-95559238D01*
X133548380Y-95368761D01*
X133500761Y-95273523D01*
X133453142Y-95225904D01*
X133357904Y-95178285D01*
X133119809Y-95178285D01*
X133024571Y-95225904D01*
X132976952Y-95273523D01*
X132929333Y-95368761D01*
X132929333Y-95559238D01*
X132976952Y-95654476D01*
X133024571Y-95702095D01*
X133119809Y-95749714D01*
X133453142Y-93416380D02*
X133500761Y-93464000D01*
X133548380Y-93606857D01*
X133548380Y-93702095D01*
X133500761Y-93844952D01*
X133405523Y-93940190D01*
X133310285Y-93987809D01*
X133119809Y-94035428D01*
X132976952Y-94035428D01*
X132786476Y-93987809D01*
X132691238Y-93940190D01*
X132596000Y-93844952D01*
X132548380Y-93702095D01*
X132548380Y-93606857D01*
X132596000Y-93464000D01*
X132643619Y-93416380D01*
X133548380Y-92559238D02*
X133024571Y-92559238D01*
X132929333Y-92606857D01*
X132881714Y-92702095D01*
X132881714Y-92892571D01*
X132929333Y-92987809D01*
X133500761Y-92559238D02*
X133548380Y-92654476D01*
X133548380Y-92892571D01*
X133500761Y-92987809D01*
X133405523Y-93035428D01*
X133310285Y-93035428D01*
X133215047Y-92987809D01*
X133167428Y-92892571D01*
X133167428Y-92654476D01*
X133119809Y-92559238D01*
X133548380Y-92083047D02*
X132881714Y-92083047D01*
X133072190Y-92083047D02*
X132976952Y-92035428D01*
X132929333Y-91987809D01*
X132881714Y-91892571D01*
X132881714Y-91797333D01*
X132881714Y-91606857D02*
X132881714Y-91225904D01*
X132548380Y-91464000D02*
X133405523Y-91464000D01*
X133500761Y-91416380D01*
X133548380Y-91321142D01*
X133548380Y-91225904D01*
X133548380Y-90892571D02*
X132881714Y-90892571D01*
X133072190Y-90892571D02*
X132976952Y-90844952D01*
X132929333Y-90797333D01*
X132881714Y-90702095D01*
X132881714Y-90606857D01*
X133548380Y-90273523D02*
X132881714Y-90273523D01*
X132548380Y-90273523D02*
X132596000Y-90321142D01*
X132643619Y-90273523D01*
X132596000Y-90225904D01*
X132548380Y-90273523D01*
X132643619Y-90273523D01*
X133548380Y-89368761D02*
X132548380Y-89368761D01*
X133500761Y-89368761D02*
X133548380Y-89464000D01*
X133548380Y-89654476D01*
X133500761Y-89749714D01*
X133453142Y-89797333D01*
X133357904Y-89844952D01*
X133072190Y-89844952D01*
X132976952Y-89797333D01*
X132929333Y-89749714D01*
X132881714Y-89654476D01*
X132881714Y-89464000D01*
X132929333Y-89368761D01*
X132881714Y-88464000D02*
X133691238Y-88464000D01*
X133786476Y-88511619D01*
X133834095Y-88559238D01*
X133881714Y-88654476D01*
X133881714Y-88797333D01*
X133834095Y-88892571D01*
X133500761Y-88464000D02*
X133548380Y-88559238D01*
X133548380Y-88749714D01*
X133500761Y-88844952D01*
X133453142Y-88892571D01*
X133357904Y-88940190D01*
X133072190Y-88940190D01*
X132976952Y-88892571D01*
X132929333Y-88844952D01*
X132881714Y-88749714D01*
X132881714Y-88559238D01*
X132929333Y-88464000D01*
X133500761Y-87606857D02*
X133548380Y-87702095D01*
X133548380Y-87892571D01*
X133500761Y-87987809D01*
X133405523Y-88035428D01*
X133024571Y-88035428D01*
X132929333Y-87987809D01*
X132881714Y-87892571D01*
X132881714Y-87702095D01*
X132929333Y-87606857D01*
X133024571Y-87559238D01*
X133119809Y-87559238D01*
X133215047Y-88035428D01*
D11*
%TO.C,G\u002A\u002A\u002A*%
G36*
X139530667Y-114017778D02*
G01*
X137617827Y-114017778D01*
X137617827Y-112104938D01*
X139530667Y-112104938D01*
X139530667Y-114017778D01*
G37*
X139530667Y-114017778D02*
X137617827Y-114017778D01*
X137617827Y-112104938D01*
X139530667Y-112104938D01*
X139530667Y-114017778D01*
G36*
X142102025Y-114017778D02*
G01*
X140173506Y-114017778D01*
X140173506Y-112104938D01*
X142102025Y-112104938D01*
X142102025Y-114017778D01*
G37*
X142102025Y-114017778D02*
X140173506Y-114017778D01*
X140173506Y-112104938D01*
X142102025Y-112104938D01*
X142102025Y-114017778D01*
G36*
X144657704Y-114017778D02*
G01*
X142729185Y-114017778D01*
X142729185Y-112104938D01*
X144657704Y-112104938D01*
X144657704Y-114017778D01*
G37*
X144657704Y-114017778D02*
X142729185Y-114017778D01*
X142729185Y-112104938D01*
X144657704Y-112104938D01*
X144657704Y-114017778D01*
G36*
X147213383Y-114017778D02*
G01*
X145284621Y-114017778D01*
X145288662Y-113065278D01*
X145292704Y-112112778D01*
X146253043Y-112108737D01*
X147213383Y-112104697D01*
X147213383Y-114017778D01*
G37*
X147213383Y-114017778D02*
X145284621Y-114017778D01*
X145288662Y-113065278D01*
X145292704Y-112112778D01*
X146253043Y-112108737D01*
X147213383Y-112104697D01*
X147213383Y-114017778D01*
G36*
X149784741Y-114017778D02*
G01*
X147856222Y-114017778D01*
X147856222Y-112104938D01*
X149784741Y-112104938D01*
X149784741Y-114017778D01*
G37*
X149784741Y-114017778D02*
X147856222Y-114017778D01*
X147856222Y-112104938D01*
X149784741Y-112104938D01*
X149784741Y-114017778D01*
G36*
X152340420Y-114017778D02*
G01*
X150411901Y-114017778D01*
X150411901Y-112104938D01*
X152340420Y-112104938D01*
X152340420Y-114017778D01*
G37*
X152340420Y-114017778D02*
X150411901Y-114017778D01*
X150411901Y-112104938D01*
X152340420Y-112104938D01*
X152340420Y-114017778D01*
G36*
X154896099Y-114017778D02*
G01*
X152967580Y-114017778D01*
X152967580Y-112104938D01*
X154896099Y-112104938D01*
X154896099Y-114017778D01*
G37*
X154896099Y-114017778D02*
X152967580Y-114017778D01*
X152967580Y-112104938D01*
X154896099Y-112104938D01*
X154896099Y-114017778D01*
G36*
X157451778Y-114017778D02*
G01*
X155523259Y-114017778D01*
X155523259Y-112104938D01*
X157451778Y-112104938D01*
X157451778Y-114017778D01*
G37*
X157451778Y-114017778D02*
X155523259Y-114017778D01*
X155523259Y-112104938D01*
X157451778Y-112104938D01*
X157451778Y-114017778D01*
G36*
X159054957Y-112108737D02*
G01*
X160015296Y-112112778D01*
X160019337Y-113065278D01*
X160023379Y-114017778D01*
X158094617Y-114017778D01*
X158094617Y-112104697D01*
X159054957Y-112108737D01*
G37*
X159054957Y-112108737D02*
X160015296Y-112112778D01*
X160019337Y-113065278D01*
X160023379Y-114017778D01*
X158094617Y-114017778D01*
X158094617Y-112104697D01*
X159054957Y-112108737D01*
G36*
X162578815Y-114017778D02*
G01*
X160650296Y-114017778D01*
X160650296Y-112104938D01*
X162578815Y-112104938D01*
X162578815Y-114017778D01*
G37*
X162578815Y-114017778D02*
X160650296Y-114017778D01*
X160650296Y-112104938D01*
X162578815Y-112104938D01*
X162578815Y-114017778D01*
G36*
X165134494Y-114017778D02*
G01*
X163205975Y-114017778D01*
X163205975Y-112104938D01*
X165134494Y-112104938D01*
X165134494Y-114017778D01*
G37*
X165134494Y-114017778D02*
X163205975Y-114017778D01*
X163205975Y-112104938D01*
X165134494Y-112104938D01*
X165134494Y-114017778D01*
G36*
X167690173Y-114017778D02*
G01*
X165777333Y-114017778D01*
X165777333Y-112104938D01*
X167690173Y-112104938D01*
X167690173Y-114017778D01*
G37*
X167690173Y-114017778D02*
X165777333Y-114017778D01*
X165777333Y-112104938D01*
X167690173Y-112104938D01*
X167690173Y-114017778D01*
G36*
X139530667Y-111462099D02*
G01*
X137617827Y-111462099D01*
X137617827Y-109549259D01*
X139530667Y-109549259D01*
X139530667Y-111462099D01*
G37*
X139530667Y-111462099D02*
X137617827Y-111462099D01*
X137617827Y-109549259D01*
X139530667Y-109549259D01*
X139530667Y-111462099D01*
G36*
X142102267Y-111462099D02*
G01*
X140173263Y-111462099D01*
X140177304Y-110509599D01*
X140181346Y-109557099D01*
X142094185Y-109557099D01*
X142102267Y-111462099D01*
G37*
X142102267Y-111462099D02*
X140173263Y-111462099D01*
X140177304Y-110509599D01*
X140181346Y-109557099D01*
X142094185Y-109557099D01*
X142102267Y-111462099D01*
G36*
X144657704Y-111462099D02*
G01*
X142728942Y-111462099D01*
X142732983Y-110509599D01*
X142737025Y-109557099D01*
X143697364Y-109553058D01*
X144657704Y-109549018D01*
X144657704Y-111462099D01*
G37*
X144657704Y-111462099D02*
X142728942Y-111462099D01*
X142732983Y-110509599D01*
X142737025Y-109557099D01*
X143697364Y-109553058D01*
X144657704Y-109549018D01*
X144657704Y-111462099D01*
G36*
X151372241Y-109553058D02*
G01*
X152332580Y-109557099D01*
X152340662Y-111462099D01*
X150411901Y-111462099D01*
X150411901Y-109549018D01*
X151372241Y-109553058D01*
G37*
X151372241Y-109553058D02*
X152332580Y-109557099D01*
X152340662Y-111462099D01*
X150411901Y-111462099D01*
X150411901Y-109549018D01*
X151372241Y-109553058D01*
G36*
X154892300Y-110509599D02*
G01*
X154896342Y-111462099D01*
X152967337Y-111462099D01*
X152971378Y-110509599D01*
X152975420Y-109557099D01*
X154888259Y-109557099D01*
X154892300Y-110509599D01*
G37*
X154892300Y-110509599D02*
X154896342Y-111462099D01*
X152967337Y-111462099D01*
X152971378Y-110509599D01*
X152975420Y-109557099D01*
X154888259Y-109557099D01*
X154892300Y-110509599D01*
G36*
X157451778Y-111462099D02*
G01*
X155523016Y-111462099D01*
X155527057Y-110509599D01*
X155531099Y-109557099D01*
X156491438Y-109553058D01*
X157451778Y-109549018D01*
X157451778Y-111462099D01*
G37*
X157451778Y-111462099D02*
X155523016Y-111462099D01*
X155527057Y-110509599D01*
X155531099Y-109557099D01*
X156491438Y-109553058D01*
X157451778Y-109549018D01*
X157451778Y-111462099D01*
G36*
X159054957Y-109553058D02*
G01*
X160015296Y-109557099D01*
X160015296Y-111454259D01*
X159054957Y-111458299D01*
X158094617Y-111462340D01*
X158094617Y-109549018D01*
X159054957Y-109553058D01*
G37*
X159054957Y-109553058D02*
X160015296Y-109557099D01*
X160015296Y-111454259D01*
X159054957Y-111458299D01*
X158094617Y-111462340D01*
X158094617Y-109549018D01*
X159054957Y-109553058D01*
G36*
X162575016Y-110509599D02*
G01*
X162579058Y-111462099D01*
X160650053Y-111462099D01*
X160654094Y-110509599D01*
X160658136Y-109557099D01*
X162570975Y-109557099D01*
X162575016Y-110509599D01*
G37*
X162575016Y-110509599D02*
X162579058Y-111462099D01*
X160650053Y-111462099D01*
X160654094Y-110509599D01*
X160658136Y-109557099D01*
X162570975Y-109557099D01*
X162575016Y-110509599D01*
G36*
X165134494Y-111462099D02*
G01*
X163205975Y-111462099D01*
X163205975Y-109549259D01*
X165134494Y-109549259D01*
X165134494Y-111462099D01*
G37*
X165134494Y-111462099D02*
X163205975Y-111462099D01*
X163205975Y-109549259D01*
X165134494Y-109549259D01*
X165134494Y-111462099D01*
G36*
X167690173Y-111462099D02*
G01*
X165777333Y-111462099D01*
X165777333Y-109549259D01*
X167690173Y-109549259D01*
X167690173Y-111462099D01*
G37*
X167690173Y-111462099D02*
X165777333Y-111462099D01*
X165777333Y-109549259D01*
X167690173Y-109549259D01*
X167690173Y-111462099D01*
G36*
X139530667Y-108906420D02*
G01*
X137617827Y-108906420D01*
X137617827Y-106993580D01*
X139530667Y-106993580D01*
X139530667Y-108906420D01*
G37*
X139530667Y-108906420D02*
X137617827Y-108906420D01*
X137617827Y-106993580D01*
X139530667Y-106993580D01*
X139530667Y-108906420D01*
G36*
X147213383Y-108906420D02*
G01*
X145284621Y-108906420D01*
X145288662Y-107953920D01*
X145292704Y-107001420D01*
X146253043Y-106997379D01*
X147213383Y-106993339D01*
X147213383Y-108906420D01*
G37*
X147213383Y-108906420D02*
X145284621Y-108906420D01*
X145288662Y-107953920D01*
X145292704Y-107001420D01*
X146253043Y-106997379D01*
X147213383Y-106993339D01*
X147213383Y-108906420D01*
G36*
X157451778Y-108906420D02*
G01*
X155523259Y-108906420D01*
X155523259Y-106993580D01*
X157451778Y-106993580D01*
X157451778Y-108906420D01*
G37*
X157451778Y-108906420D02*
X155523259Y-108906420D01*
X155523259Y-106993580D01*
X157451778Y-106993580D01*
X157451778Y-108906420D01*
G36*
X159054957Y-106997379D02*
G01*
X160015296Y-107001420D01*
X160019337Y-107953920D01*
X160023379Y-108906420D01*
X158094617Y-108906420D01*
X158094617Y-106993339D01*
X159054957Y-106997379D01*
G37*
X159054957Y-106997379D02*
X160015296Y-107001420D01*
X160019337Y-107953920D01*
X160023379Y-108906420D01*
X158094617Y-108906420D01*
X158094617Y-106993339D01*
X159054957Y-106997379D01*
G36*
X165134494Y-108906420D02*
G01*
X163205975Y-108906420D01*
X163205975Y-106993580D01*
X165134494Y-106993580D01*
X165134494Y-108906420D01*
G37*
X165134494Y-108906420D02*
X163205975Y-108906420D01*
X163205975Y-106993580D01*
X165134494Y-106993580D01*
X165134494Y-108906420D01*
G36*
X167690173Y-108906420D02*
G01*
X165777333Y-108906420D01*
X165777333Y-106993580D01*
X167690173Y-106993580D01*
X167690173Y-108906420D01*
G37*
X167690173Y-108906420D02*
X165777333Y-108906420D01*
X165777333Y-106993580D01*
X167690173Y-106993580D01*
X167690173Y-108906420D01*
G36*
X139530667Y-106350741D02*
G01*
X137617827Y-106350741D01*
X137617827Y-104437901D01*
X139530667Y-104437901D01*
X139530667Y-106350741D01*
G37*
X139530667Y-106350741D02*
X137617827Y-106350741D01*
X137617827Y-104437901D01*
X139530667Y-104437901D01*
X139530667Y-106350741D01*
G36*
X157451778Y-106350741D02*
G01*
X155523259Y-106350741D01*
X155523259Y-104437901D01*
X157451778Y-104437901D01*
X157451778Y-106350741D01*
G37*
X157451778Y-106350741D02*
X155523259Y-106350741D01*
X155523259Y-104437901D01*
X157451778Y-104437901D01*
X157451778Y-106350741D01*
G36*
X165134494Y-106350741D02*
G01*
X163205975Y-106350741D01*
X163205975Y-104437901D01*
X165134494Y-104437901D01*
X165134494Y-106350741D01*
G37*
X165134494Y-106350741D02*
X163205975Y-106350741D01*
X163205975Y-104437901D01*
X165134494Y-104437901D01*
X165134494Y-106350741D01*
G36*
X167690173Y-106350741D02*
G01*
X165777333Y-106350741D01*
X165777333Y-104437901D01*
X167690173Y-104437901D01*
X167690173Y-106350741D01*
G37*
X167690173Y-106350741D02*
X165777333Y-106350741D01*
X165777333Y-104437901D01*
X167690173Y-104437901D01*
X167690173Y-106350741D01*
G36*
X149776901Y-103787222D02*
G01*
X148816562Y-103791262D01*
X147856222Y-103795303D01*
X147856222Y-101882222D01*
X149784983Y-101882222D01*
X149776901Y-103787222D01*
G37*
X149776901Y-103787222D02*
X148816562Y-103791262D01*
X147856222Y-103795303D01*
X147856222Y-101882222D01*
X149784983Y-101882222D01*
X149776901Y-103787222D01*
G36*
X167690173Y-103795062D02*
G01*
X165777333Y-103795062D01*
X165777333Y-101882222D01*
X167690173Y-101882222D01*
X167690173Y-103795062D01*
G37*
X167690173Y-103795062D02*
X165777333Y-103795062D01*
X165777333Y-101882222D01*
X167690173Y-101882222D01*
X167690173Y-103795062D01*
G36*
X142094185Y-101231543D02*
G01*
X141141240Y-101235584D01*
X140936792Y-101236328D01*
X140761723Y-101236673D01*
X140614059Y-101236586D01*
X140491823Y-101236036D01*
X140393039Y-101234991D01*
X140315730Y-101233418D01*
X140257922Y-101231285D01*
X140217637Y-101228559D01*
X140192901Y-101225209D01*
X140181737Y-101221202D01*
X140180753Y-101219905D01*
X140179465Y-101201067D01*
X140178379Y-101153658D01*
X140177506Y-101080463D01*
X140176855Y-100984269D01*
X140176438Y-100867863D01*
X140176262Y-100734029D01*
X140176340Y-100585555D01*
X140176681Y-100425226D01*
X140177278Y-100259444D01*
X140181346Y-99318704D01*
X142094185Y-99318704D01*
X142094185Y-101231543D01*
G37*
X142094185Y-101231543D02*
X141141240Y-101235584D01*
X140936792Y-101236328D01*
X140761723Y-101236673D01*
X140614059Y-101236586D01*
X140491823Y-101236036D01*
X140393039Y-101234991D01*
X140315730Y-101233418D01*
X140257922Y-101231285D01*
X140217637Y-101228559D01*
X140192901Y-101225209D01*
X140181737Y-101221202D01*
X140180753Y-101219905D01*
X140179465Y-101201067D01*
X140178379Y-101153658D01*
X140177506Y-101080463D01*
X140176855Y-100984269D01*
X140176438Y-100867863D01*
X140176262Y-100734029D01*
X140176340Y-100585555D01*
X140176681Y-100425226D01*
X140177278Y-100259444D01*
X140181346Y-99318704D01*
X142094185Y-99318704D01*
X142094185Y-101231543D01*
G36*
X162570975Y-101231543D02*
G01*
X161618030Y-101235584D01*
X161413582Y-101236328D01*
X161238514Y-101236673D01*
X161090849Y-101236586D01*
X160968613Y-101236036D01*
X160869829Y-101234991D01*
X160792520Y-101233418D01*
X160734712Y-101231285D01*
X160694427Y-101228559D01*
X160669691Y-101225209D01*
X160658527Y-101221202D01*
X160657543Y-101219905D01*
X160656255Y-101201067D01*
X160655169Y-101153658D01*
X160654296Y-101080463D01*
X160653646Y-100984269D01*
X160653228Y-100867863D01*
X160653052Y-100734029D01*
X160653130Y-100585555D01*
X160653471Y-100425226D01*
X160654068Y-100259444D01*
X160658136Y-99318704D01*
X162570975Y-99318704D01*
X162570975Y-101231543D01*
G37*
X162570975Y-101231543D02*
X161618030Y-101235584D01*
X161413582Y-101236328D01*
X161238514Y-101236673D01*
X161090849Y-101236586D01*
X160968613Y-101236036D01*
X160869829Y-101234991D01*
X160792520Y-101233418D01*
X160734712Y-101231285D01*
X160694427Y-101228559D01*
X160669691Y-101225209D01*
X160658527Y-101221202D01*
X160657543Y-101219905D01*
X160656255Y-101201067D01*
X160655169Y-101153658D01*
X160654296Y-101080463D01*
X160653646Y-100984269D01*
X160653228Y-100867863D01*
X160653052Y-100734029D01*
X160653130Y-100585555D01*
X160653471Y-100425226D01*
X160654068Y-100259444D01*
X160658136Y-99318704D01*
X162570975Y-99318704D01*
X162570975Y-101231543D01*
D12*
%TO.C,U1*%
X167954000Y-83836000D02*
X167954000Y-78776000D01*
X167954000Y-78776000D02*
X137354000Y-78776000D01*
X137354000Y-78776000D02*
X137354000Y-90896000D01*
X137354000Y-90896000D02*
X167954000Y-90896000D01*
X167954000Y-90896000D02*
X167954000Y-85836000D01*
X168014000Y-75776000D02*
X137294000Y-75776000D01*
X137294000Y-75776000D02*
X137294000Y-93896000D01*
X137294000Y-93896000D02*
X168014000Y-93896000D01*
X168014000Y-93896000D02*
X168014000Y-75776000D01*
X167954000Y-85836000D02*
G75*
G02*
X167954000Y-83836000I0J1000000D01*
G01*
D10*
X164647619Y-86550285D02*
X164600000Y-86502666D01*
X164552380Y-86407428D01*
X164552380Y-86169333D01*
X164600000Y-86074095D01*
X164647619Y-86026476D01*
X164742857Y-85978857D01*
X164838095Y-85978857D01*
X164980952Y-86026476D01*
X165552380Y-86597904D01*
X165552380Y-85978857D01*
X164552380Y-85645523D02*
X164552380Y-84978857D01*
X165552380Y-85407428D01*
X164552380Y-84693142D02*
X164552380Y-84074095D01*
X164933333Y-84407428D01*
X164933333Y-84264571D01*
X164980952Y-84169333D01*
X165028571Y-84121714D01*
X165123809Y-84074095D01*
X165361904Y-84074095D01*
X165457142Y-84121714D01*
X165504761Y-84169333D01*
X165552380Y-84264571D01*
X165552380Y-84550285D01*
X165504761Y-84645523D01*
X165457142Y-84693142D01*
X164647619Y-83693142D02*
X164600000Y-83645523D01*
X164552380Y-83550285D01*
X164552380Y-83312190D01*
X164600000Y-83216952D01*
X164647619Y-83169333D01*
X164742857Y-83121714D01*
X164838095Y-83121714D01*
X164980952Y-83169333D01*
X165552380Y-83740761D01*
X165552380Y-83121714D01*
%TD*%
M02*
