M48
; DRILL file {KiCad (5.1.6-0-10_14)} date Wednesday, September 23, 2020 at 11:56:04 PM
; FORMAT={-:-/ absolute / metric / decimal}
; #@! TF.CreationDate,2020-09-23T23:56:04+02:00
; #@! TF.GenerationSoftware,Kicad,Pcbnew,(5.1.6-0-10_14)
; #@! TF.FileFunction,Plated,1,2,PTH
FMAT,2
METRIC
T1C0.400
T2C0.600
T3C0.800
%
G90
G05
T1
X154.178Y-90.678
T2
X135.636Y-97.028
X166.624Y-87.122
T3
X145.034Y-81.026
X145.034Y-88.646
X147.574Y-81.026
X147.574Y-88.646
X150.114Y-81.026
X150.114Y-88.646
X152.654Y-81.026
X152.654Y-88.646
X155.194Y-81.026
X155.194Y-88.646
X157.734Y-81.026
X157.734Y-88.646
X160.274Y-81.026
X160.274Y-88.646
X138.684Y-77.216
X138.684Y-92.456
X141.224Y-77.216
X141.224Y-92.456
X143.764Y-77.216
X143.764Y-92.456
X146.304Y-77.216
X146.304Y-92.456
X148.844Y-77.216
X148.844Y-92.456
X151.384Y-77.216
X151.384Y-92.456
X153.924Y-77.216
X153.924Y-92.456
X156.464Y-77.216
X156.464Y-92.456
X159.004Y-77.216
X159.004Y-92.456
X161.544Y-77.216
X161.544Y-92.456
X164.084Y-77.216
X164.084Y-92.456
X166.624Y-77.216
X166.624Y-92.456
T0
M30
