%TF.GenerationSoftware,KiCad,Pcbnew,(5.1.6-0-10_14)*%
%TF.CreationDate,2020-09-23T23:55:55+02:00*%
%TF.ProjectId,a2k6-cart,61326b36-2d63-4617-9274-2e6b69636164,rev?*%
%TF.SameCoordinates,Original*%
%TF.FileFunction,Legend,Bot*%
%TF.FilePolarity,Positive*%
%FSLAX46Y46*%
G04 Gerber Fmt 4.6, Leading zero omitted, Abs format (unit mm)*
G04 Created by KiCad (PCBNEW (5.1.6-0-10_14)) date 2020-09-23 23:55:55*
%MOMM*%
%LPD*%
G01*
G04 APERTURE LIST*
%ADD10C,0.125000*%
%ADD11C,0.120000*%
%ADD12C,0.150000*%
G04 APERTURE END LIST*
D10*
X132734857Y-87591047D02*
X133139619Y-87591047D01*
X133187238Y-87567238D01*
X133211047Y-87543428D01*
X133234857Y-87495809D01*
X133234857Y-87424380D01*
X133211047Y-87376761D01*
X133044380Y-87591047D02*
X133068190Y-87543428D01*
X133068190Y-87448190D01*
X133044380Y-87400571D01*
X133020571Y-87376761D01*
X132972952Y-87352952D01*
X132830095Y-87352952D01*
X132782476Y-87376761D01*
X132758666Y-87400571D01*
X132734857Y-87448190D01*
X132734857Y-87543428D01*
X132758666Y-87591047D01*
X133068190Y-87829142D02*
X132734857Y-87829142D01*
X132568190Y-87829142D02*
X132592000Y-87805333D01*
X132615809Y-87829142D01*
X132592000Y-87852952D01*
X132568190Y-87829142D01*
X132615809Y-87829142D01*
X132734857Y-87995809D02*
X132734857Y-88186285D01*
X132568190Y-88067238D02*
X132996761Y-88067238D01*
X133044380Y-88091047D01*
X133068190Y-88138666D01*
X133068190Y-88186285D01*
X133068190Y-88352952D02*
X132568190Y-88352952D01*
X133068190Y-88567238D02*
X132806285Y-88567238D01*
X132758666Y-88543428D01*
X132734857Y-88495809D01*
X132734857Y-88424380D01*
X132758666Y-88376761D01*
X132782476Y-88352952D01*
X132734857Y-89019619D02*
X133068190Y-89019619D01*
X132734857Y-88805333D02*
X132996761Y-88805333D01*
X133044380Y-88829142D01*
X133068190Y-88876761D01*
X133068190Y-88948190D01*
X133044380Y-88995809D01*
X133020571Y-89019619D01*
X133068190Y-89257714D02*
X132568190Y-89257714D01*
X132758666Y-89257714D02*
X132734857Y-89305333D01*
X132734857Y-89400571D01*
X132758666Y-89448190D01*
X132782476Y-89472000D01*
X132830095Y-89495809D01*
X132972952Y-89495809D01*
X133020571Y-89472000D01*
X133044380Y-89448190D01*
X133068190Y-89400571D01*
X133068190Y-89305333D01*
X133044380Y-89257714D01*
X133020571Y-89710095D02*
X133044380Y-89733904D01*
X133068190Y-89710095D01*
X133044380Y-89686285D01*
X133020571Y-89710095D01*
X133068190Y-89710095D01*
X133044380Y-90162476D02*
X133068190Y-90114857D01*
X133068190Y-90019619D01*
X133044380Y-89972000D01*
X133020571Y-89948190D01*
X132972952Y-89924380D01*
X132830095Y-89924380D01*
X132782476Y-89948190D01*
X132758666Y-89972000D01*
X132734857Y-90019619D01*
X132734857Y-90114857D01*
X132758666Y-90162476D01*
X133068190Y-90448190D02*
X133044380Y-90400571D01*
X133020571Y-90376761D01*
X132972952Y-90352952D01*
X132830095Y-90352952D01*
X132782476Y-90376761D01*
X132758666Y-90400571D01*
X132734857Y-90448190D01*
X132734857Y-90519619D01*
X132758666Y-90567238D01*
X132782476Y-90591047D01*
X132830095Y-90614857D01*
X132972952Y-90614857D01*
X133020571Y-90591047D01*
X133044380Y-90567238D01*
X133068190Y-90519619D01*
X133068190Y-90448190D01*
X133068190Y-90829142D02*
X132734857Y-90829142D01*
X132782476Y-90829142D02*
X132758666Y-90852952D01*
X132734857Y-90900571D01*
X132734857Y-90972000D01*
X132758666Y-91019619D01*
X132806285Y-91043428D01*
X133068190Y-91043428D01*
X132806285Y-91043428D02*
X132758666Y-91067238D01*
X132734857Y-91114857D01*
X132734857Y-91186285D01*
X132758666Y-91233904D01*
X132806285Y-91257714D01*
X133068190Y-91257714D01*
X132544380Y-91852952D02*
X133187238Y-91424380D01*
X133044380Y-91995809D02*
X133068190Y-92043428D01*
X133068190Y-92138666D01*
X133044380Y-92186285D01*
X132996761Y-92210095D01*
X132972952Y-92210095D01*
X132925333Y-92186285D01*
X132901523Y-92138666D01*
X132901523Y-92067238D01*
X132877714Y-92019619D01*
X132830095Y-91995809D01*
X132806285Y-91995809D01*
X132758666Y-92019619D01*
X132734857Y-92067238D01*
X132734857Y-92138666D01*
X132758666Y-92186285D01*
X133068190Y-92638666D02*
X132806285Y-92638666D01*
X132758666Y-92614857D01*
X132734857Y-92567238D01*
X132734857Y-92472000D01*
X132758666Y-92424380D01*
X133044380Y-92638666D02*
X133068190Y-92591047D01*
X133068190Y-92472000D01*
X133044380Y-92424380D01*
X132996761Y-92400571D01*
X132949142Y-92400571D01*
X132901523Y-92424380D01*
X132877714Y-92472000D01*
X132877714Y-92591047D01*
X132853904Y-92638666D01*
X133068190Y-92876761D02*
X132734857Y-92876761D01*
X132830095Y-92876761D02*
X132782476Y-92900571D01*
X132758666Y-92924380D01*
X132734857Y-92972000D01*
X132734857Y-93019619D01*
X132734857Y-93138666D02*
X133068190Y-93233904D01*
X132830095Y-93329142D01*
X133068190Y-93424380D01*
X132734857Y-93519619D01*
X133044380Y-93900571D02*
X133068190Y-93852952D01*
X133068190Y-93757714D01*
X133044380Y-93710095D01*
X132996761Y-93686285D01*
X132806285Y-93686285D01*
X132758666Y-93710095D01*
X132734857Y-93757714D01*
X132734857Y-93852952D01*
X132758666Y-93900571D01*
X132806285Y-93924380D01*
X132853904Y-93924380D01*
X132901523Y-93686285D01*
X133068190Y-94138666D02*
X132734857Y-94138666D01*
X132568190Y-94138666D02*
X132592000Y-94114857D01*
X132615809Y-94138666D01*
X132592000Y-94162476D01*
X132568190Y-94138666D01*
X132615809Y-94138666D01*
X133068190Y-94448190D02*
X133044380Y-94400571D01*
X132996761Y-94376761D01*
X132568190Y-94376761D01*
X133044380Y-94829142D02*
X133068190Y-94781523D01*
X133068190Y-94686285D01*
X133044380Y-94638666D01*
X132996761Y-94614857D01*
X132806285Y-94614857D01*
X132758666Y-94638666D01*
X132734857Y-94686285D01*
X132734857Y-94781523D01*
X132758666Y-94829142D01*
X132806285Y-94852952D01*
X132853904Y-94852952D01*
X132901523Y-94614857D01*
X133068190Y-95067238D02*
X132734857Y-95067238D01*
X132830095Y-95067238D02*
X132782476Y-95091047D01*
X132758666Y-95114857D01*
X132734857Y-95162476D01*
X132734857Y-95210095D01*
X132544380Y-95733904D02*
X133187238Y-95305333D01*
X133068190Y-96114857D02*
X132806285Y-96114857D01*
X132758666Y-96091047D01*
X132734857Y-96043428D01*
X132734857Y-95948190D01*
X132758666Y-95900571D01*
X133044380Y-96114857D02*
X133068190Y-96067238D01*
X133068190Y-95948190D01*
X133044380Y-95900571D01*
X132996761Y-95876761D01*
X132949142Y-95876761D01*
X132901523Y-95900571D01*
X132877714Y-95948190D01*
X132877714Y-96067238D01*
X132853904Y-96114857D01*
X132615809Y-96329142D02*
X132592000Y-96352952D01*
X132568190Y-96400571D01*
X132568190Y-96519619D01*
X132592000Y-96567238D01*
X132615809Y-96591047D01*
X132663428Y-96614857D01*
X132711047Y-96614857D01*
X132782476Y-96591047D01*
X133068190Y-96305333D01*
X133068190Y-96614857D01*
X133068190Y-96829142D02*
X132568190Y-96829142D01*
X132877714Y-96876761D02*
X133068190Y-97019619D01*
X132734857Y-97019619D02*
X132925333Y-96829142D01*
X132568190Y-97448190D02*
X132568190Y-97352952D01*
X132592000Y-97305333D01*
X132615809Y-97281523D01*
X132687238Y-97233904D01*
X132782476Y-97210095D01*
X132972952Y-97210095D01*
X133020571Y-97233904D01*
X133044380Y-97257714D01*
X133068190Y-97305333D01*
X133068190Y-97400571D01*
X133044380Y-97448190D01*
X133020571Y-97472000D01*
X132972952Y-97495809D01*
X132853904Y-97495809D01*
X132806285Y-97472000D01*
X132782476Y-97448190D01*
X132758666Y-97400571D01*
X132758666Y-97305333D01*
X132782476Y-97257714D01*
X132806285Y-97233904D01*
X132853904Y-97210095D01*
X132877714Y-97710095D02*
X132877714Y-98091047D01*
X133044380Y-98543428D02*
X133068190Y-98495809D01*
X133068190Y-98400571D01*
X133044380Y-98352952D01*
X133020571Y-98329142D01*
X132972952Y-98305333D01*
X132830095Y-98305333D01*
X132782476Y-98329142D01*
X132758666Y-98352952D01*
X132734857Y-98400571D01*
X132734857Y-98495809D01*
X132758666Y-98543428D01*
X133068190Y-98972000D02*
X132806285Y-98972000D01*
X132758666Y-98948190D01*
X132734857Y-98900571D01*
X132734857Y-98805333D01*
X132758666Y-98757714D01*
X133044380Y-98972000D02*
X133068190Y-98924380D01*
X133068190Y-98805333D01*
X133044380Y-98757714D01*
X132996761Y-98733904D01*
X132949142Y-98733904D01*
X132901523Y-98757714D01*
X132877714Y-98805333D01*
X132877714Y-98924380D01*
X132853904Y-98972000D01*
X133068190Y-99210095D02*
X132734857Y-99210095D01*
X132830095Y-99210095D02*
X132782476Y-99233904D01*
X132758666Y-99257714D01*
X132734857Y-99305333D01*
X132734857Y-99352952D01*
X132734857Y-99448190D02*
X132734857Y-99638666D01*
X132568190Y-99519619D02*
X132996761Y-99519619D01*
X133044380Y-99543428D01*
X133068190Y-99591047D01*
X133068190Y-99638666D01*
D11*
%TO.C,U2*%
X161604000Y-85836000D02*
X161604000Y-87086000D01*
X161604000Y-87086000D02*
X143704000Y-87086000D01*
X143704000Y-87086000D02*
X143704000Y-82586000D01*
X143704000Y-82586000D02*
X161604000Y-82586000D01*
X161604000Y-82586000D02*
X161604000Y-83836000D01*
X161604000Y-83836000D02*
G75*
G03*
X161604000Y-85836000I0J-1000000D01*
G01*
D12*
X155296857Y-84288380D02*
X154630190Y-84288380D01*
X155058761Y-85288380D01*
X153820666Y-84621714D02*
X153820666Y-85288380D01*
X154058761Y-84240761D02*
X154296857Y-84955047D01*
X153677809Y-84955047D01*
X152820666Y-85288380D02*
X153296857Y-85288380D01*
X153296857Y-84288380D01*
X152534952Y-85240761D02*
X152392095Y-85288380D01*
X152154000Y-85288380D01*
X152058761Y-85240761D01*
X152011142Y-85193142D01*
X151963523Y-85097904D01*
X151963523Y-85002666D01*
X152011142Y-84907428D01*
X152058761Y-84859809D01*
X152154000Y-84812190D01*
X152344476Y-84764571D01*
X152439714Y-84716952D01*
X152487333Y-84669333D01*
X152534952Y-84574095D01*
X152534952Y-84478857D01*
X152487333Y-84383619D01*
X152439714Y-84336000D01*
X152344476Y-84288380D01*
X152106380Y-84288380D01*
X151963523Y-84336000D01*
X151344476Y-84288380D02*
X151249238Y-84288380D01*
X151154000Y-84336000D01*
X151106380Y-84383619D01*
X151058761Y-84478857D01*
X151011142Y-84669333D01*
X151011142Y-84907428D01*
X151058761Y-85097904D01*
X151106380Y-85193142D01*
X151154000Y-85240761D01*
X151249238Y-85288380D01*
X151344476Y-85288380D01*
X151439714Y-85240761D01*
X151487333Y-85193142D01*
X151534952Y-85097904D01*
X151582571Y-84907428D01*
X151582571Y-84669333D01*
X151534952Y-84478857D01*
X151487333Y-84383619D01*
X151439714Y-84336000D01*
X151344476Y-84288380D01*
X150154000Y-84621714D02*
X150154000Y-85288380D01*
X150392095Y-84240761D02*
X150630190Y-84955047D01*
X150011142Y-84955047D01*
%TD*%
M02*
