%TF.GenerationSoftware,KiCad,Pcbnew,(5.1.6-0-10_14)*%
%TF.CreationDate,2020-09-23T23:55:55+02:00*%
%TF.ProjectId,a2k6-cart,61326b36-2d63-4617-9274-2e6b69636164,rev?*%
%TF.SameCoordinates,Original*%
%TF.FileFunction,Copper,L2,Bot*%
%TF.FilePolarity,Positive*%
%FSLAX46Y46*%
G04 Gerber Fmt 4.6, Leading zero omitted, Abs format (unit mm)*
G04 Created by KiCad (PCBNEW (5.1.6-0-10_14)) date 2020-09-23 23:55:55*
%MOMM*%
%LPD*%
G01*
G04 APERTURE LIST*
%TA.AperFunction,ComponentPad*%
%ADD10O,1.600000X2.400000*%
%TD*%
%TA.AperFunction,ComponentPad*%
%ADD11R,1.600000X2.400000*%
%TD*%
%TA.AperFunction,ConnectorPad*%
%ADD12R,1.524000X6.350000*%
%TD*%
%TA.AperFunction,ViaPad*%
%ADD13C,1.200000*%
%TD*%
%TA.AperFunction,ViaPad*%
%ADD14C,0.800000*%
%TD*%
%TA.AperFunction,Conductor*%
%ADD15C,1.000000*%
%TD*%
%TA.AperFunction,Conductor*%
%ADD16C,0.500000*%
%TD*%
G04 APERTURE END LIST*
D10*
%TO.P,U2,14*%
%TO.N,+5V*%
X160274000Y-81026000D03*
%TO.P,U2,7*%
%TO.N,GND*%
X145034000Y-88646000D03*
%TO.P,U2,13*%
%TO.N,N/C*%
X157734000Y-81026000D03*
%TO.P,U2,6*%
X147574000Y-88646000D03*
%TO.P,U2,12*%
X155194000Y-81026000D03*
%TO.P,U2,5*%
X150114000Y-88646000D03*
%TO.P,U2,11*%
X152654000Y-81026000D03*
%TO.P,U2,4*%
X152654000Y-88646000D03*
%TO.P,U2,10*%
X150114000Y-81026000D03*
%TO.P,U2,3*%
X155194000Y-88646000D03*
%TO.P,U2,9*%
X147574000Y-81026000D03*
%TO.P,U2,2*%
%TO.N,Net-(U1-Pad18)*%
X157734000Y-88646000D03*
%TO.P,U2,8*%
%TO.N,N/C*%
X145034000Y-81026000D03*
D11*
%TO.P,U2,1*%
%TO.N,Net-(J1-PadA12)*%
X160274000Y-88646000D03*
%TD*%
D10*
%TO.P,U1,24*%
%TO.N,+5V*%
X166624000Y-92456000D03*
%TO.P,U1,12*%
%TO.N,GND*%
X138684000Y-77216000D03*
%TO.P,U1,23*%
%TO.N,Net-(J1-PadA8)*%
X164084000Y-92456000D03*
%TO.P,U1,11*%
%TO.N,D2*%
X141224000Y-77216000D03*
%TO.P,U1,22*%
%TO.N,Net-(J1-PadA9)*%
X161544000Y-92456000D03*
%TO.P,U1,10*%
%TO.N,D1*%
X143764000Y-77216000D03*
%TO.P,U1,21*%
%TO.N,Net-(J1-PadA11)*%
X159004000Y-92456000D03*
%TO.P,U1,9*%
%TO.N,D0*%
X146304000Y-77216000D03*
%TO.P,U1,20*%
%TO.N,GND*%
X156464000Y-92456000D03*
%TO.P,U1,8*%
%TO.N,Net-(J1-PadA0)*%
X148844000Y-77216000D03*
%TO.P,U1,19*%
%TO.N,Net-(J1-PadA10)*%
X153924000Y-92456000D03*
%TO.P,U1,7*%
%TO.N,Net-(J1-PadA1)*%
X151384000Y-77216000D03*
%TO.P,U1,18*%
%TO.N,Net-(U1-Pad18)*%
X151384000Y-92456000D03*
%TO.P,U1,6*%
%TO.N,Net-(J1-PadA2)*%
X153924000Y-77216000D03*
%TO.P,U1,17*%
%TO.N,D7*%
X148844000Y-92456000D03*
%TO.P,U1,5*%
%TO.N,Net-(J1-PadA3)*%
X156464000Y-77216000D03*
%TO.P,U1,16*%
%TO.N,D6*%
X146304000Y-92456000D03*
%TO.P,U1,4*%
%TO.N,Net-(J1-PadA4)*%
X159004000Y-77216000D03*
%TO.P,U1,15*%
%TO.N,D5*%
X143764000Y-92456000D03*
%TO.P,U1,3*%
%TO.N,Net-(J1-PadA5)*%
X161544000Y-77216000D03*
%TO.P,U1,14*%
%TO.N,D4*%
X141224000Y-92456000D03*
%TO.P,U1,2*%
%TO.N,Net-(J1-PadA6)*%
X164084000Y-77216000D03*
%TO.P,U1,13*%
%TO.N,D3*%
X138684000Y-92456000D03*
D11*
%TO.P,U1,1*%
%TO.N,Net-(J1-PadA7)*%
X166624000Y-77216000D03*
%TD*%
D12*
%TO.P,J1,A7*%
%TO.N,Net-(J1-PadA7)*%
X166624000Y-117856000D03*
%TO.P,J1,A2*%
%TO.N,Net-(J1-PadA2)*%
X153924000Y-117856000D03*
%TO.P,J1,A0*%
%TO.N,Net-(J1-PadA0)*%
X148844000Y-117856000D03*
%TO.P,J1,D0*%
%TO.N,D0*%
X146304000Y-117856000D03*
%TO.P,J1,A5*%
%TO.N,Net-(J1-PadA5)*%
X161544000Y-117856000D03*
%TO.P,J1,GND*%
%TO.N,GND*%
X138684000Y-117856000D03*
%TO.P,J1,D2*%
%TO.N,D2*%
X141224000Y-117856000D03*
%TO.P,J1,A1*%
%TO.N,Net-(J1-PadA1)*%
X151384000Y-117856000D03*
%TO.P,J1,A4*%
%TO.N,Net-(J1-PadA4)*%
X159004000Y-117856000D03*
%TO.P,J1,A6*%
%TO.N,Net-(J1-PadA6)*%
X164084000Y-117856000D03*
%TO.P,J1,D1*%
%TO.N,D1*%
X143764000Y-117856000D03*
%TO.P,J1,A3*%
%TO.N,Net-(J1-PadA3)*%
X156464000Y-117856000D03*
%TD*%
D13*
%TO.N,+5V*%
X166624000Y-87122000D03*
%TO.N,GND*%
X135636000Y-97028000D03*
D14*
%TO.N,Net-(U1-Pad18)*%
X154178000Y-90678000D03*
%TD*%
D15*
%TO.N,+5V*%
X166624000Y-92456000D02*
X166624000Y-87122000D01*
%TO.N,GND*%
X138684000Y-100076000D02*
X135636000Y-97028000D01*
X138684000Y-117856000D02*
X138684000Y-100076000D01*
D16*
%TO.N,Net-(J1-PadA3)*%
X156464000Y-117856000D02*
X156464000Y-99822000D01*
X158984010Y-79736010D02*
X156464000Y-77216000D01*
X157714010Y-90833771D02*
X158984010Y-89563771D01*
X157714010Y-98571990D02*
X157714010Y-90833771D01*
X158984010Y-89563771D02*
X158984010Y-79736010D01*
X156464000Y-99822000D02*
X157714010Y-98571990D01*
%TO.N,D1*%
X143764000Y-117856000D02*
X143764000Y-100076000D01*
X142513990Y-78466010D02*
X143764000Y-77216000D01*
X142513990Y-98825990D02*
X142513990Y-78466010D01*
X143764000Y-100076000D02*
X142513990Y-98825990D01*
%TO.N,Net-(J1-PadA6)*%
X164084000Y-117856000D02*
X164084000Y-100076000D01*
X165334010Y-98825990D02*
X165334010Y-78466010D01*
X165334010Y-78466010D02*
X164084000Y-77216000D01*
X164084000Y-100076000D02*
X165334010Y-98825990D01*
%TO.N,Net-(J1-PadA4)*%
X160254010Y-90833771D02*
X161798000Y-90170000D01*
X160254010Y-98571990D02*
X160254010Y-90833771D01*
X159004000Y-99822000D02*
X160254010Y-98571990D01*
X159004000Y-117856000D02*
X159004000Y-99822000D01*
X161798000Y-90170000D02*
X161798000Y-79736010D01*
X161798000Y-79756000D02*
X159004000Y-77216000D01*
%TO.N,Net-(J1-PadA1)*%
X151384000Y-117856000D02*
X151384000Y-99822000D01*
X150133990Y-90793791D02*
X151384000Y-89543781D01*
X150133990Y-98571990D02*
X150133990Y-90793791D01*
X151384000Y-89543781D02*
X151384000Y-77216000D01*
X151384000Y-99822000D02*
X150133990Y-98571990D01*
%TO.N,D2*%
X141224000Y-117856000D02*
X141224000Y-100076000D01*
X139973990Y-78466010D02*
X141224000Y-77216000D01*
X139973990Y-98825990D02*
X139973990Y-78466010D01*
X141224000Y-100076000D02*
X139973990Y-98825990D01*
%TO.N,Net-(J1-PadA5)*%
X161544000Y-117856000D02*
X161544000Y-99822000D01*
X162794010Y-78466010D02*
X161544000Y-77216000D01*
X162794010Y-98571990D02*
X162794010Y-78466010D01*
X161544000Y-99822000D02*
X162794010Y-98571990D01*
%TO.N,D0*%
X146304000Y-117856000D02*
X146304000Y-99822000D01*
X146033998Y-77216000D02*
X146304000Y-77216000D01*
X143783999Y-79465999D02*
X146033998Y-77216000D01*
X143783999Y-89563780D02*
X143783999Y-79465999D01*
X145053990Y-98571990D02*
X145053990Y-90833771D01*
X145053990Y-90833771D02*
X143783999Y-89563780D01*
X146304000Y-99822000D02*
X145053990Y-98571990D01*
%TO.N,Net-(J1-PadA0)*%
X148844000Y-117856000D02*
X148844000Y-99822000D01*
X146323990Y-89563771D02*
X146323990Y-79736010D01*
X147593990Y-90833771D02*
X146323990Y-89563771D01*
X146323990Y-79736010D02*
X148844000Y-77216000D01*
X147593990Y-98571990D02*
X147593990Y-90833771D01*
X148844000Y-99822000D02*
X147593990Y-98571990D01*
%TO.N,Net-(J1-PadA2)*%
X153924000Y-117856000D02*
X153924000Y-99822000D01*
X156444010Y-79736010D02*
X153924000Y-77216000D01*
X156444010Y-89563771D02*
X156444010Y-79736010D01*
X155174010Y-90833771D02*
X156444010Y-89563771D01*
X155174010Y-98571990D02*
X155174010Y-90833771D01*
X153924000Y-99822000D02*
X155174010Y-98571990D01*
%TO.N,Net-(J1-PadA7)*%
X166624000Y-117856000D02*
X166624000Y-100076000D01*
X167874010Y-78466010D02*
X166624000Y-77216000D01*
X167874010Y-98825990D02*
X167874010Y-78466010D01*
X166624000Y-100076000D02*
X167874010Y-98825990D01*
%TO.N,Net-(U1-Pad18)*%
X151384000Y-92083781D02*
X151384000Y-92456000D01*
X153162000Y-90678000D02*
X151384000Y-92456000D01*
X154178000Y-90678000D02*
X153162000Y-90678000D01*
%TD*%
M02*
