%TF.GenerationSoftware,KiCad,Pcbnew,(5.1.6-0-10_14)*%
%TF.CreationDate,2020-09-23T23:55:55+02:00*%
%TF.ProjectId,a2k6-cart,61326b36-2d63-4617-9274-2e6b69636164,rev?*%
%TF.SameCoordinates,Original*%
%TF.FileFunction,Soldermask,Top*%
%TF.FilePolarity,Negative*%
%FSLAX46Y46*%
G04 Gerber Fmt 4.6, Leading zero omitted, Abs format (unit mm)*
G04 Created by KiCad (PCBNEW (5.1.6-0-10_14)) date 2020-09-23 23:55:55*
%MOMM*%
%LPD*%
G01*
G04 APERTURE LIST*
%ADD10C,0.100000*%
%ADD11O,1.700000X2.500000*%
%ADD12R,1.700000X2.500000*%
%ADD13R,1.624000X6.450000*%
G04 APERTURE END LIST*
D10*
G36*
X169164000Y-121539000D02*
G01*
X136144000Y-121539000D01*
X136144000Y-114681000D01*
X169164000Y-114681000D01*
X169164000Y-121539000D01*
G37*
X169164000Y-121539000D02*
X136144000Y-121539000D01*
X136144000Y-114681000D01*
X169164000Y-114681000D01*
X169164000Y-121539000D01*
D11*
%TO.C,U2*%
X160274000Y-81026000D03*
X145034000Y-88646000D03*
X157734000Y-81026000D03*
X147574000Y-88646000D03*
X155194000Y-81026000D03*
X150114000Y-88646000D03*
X152654000Y-81026000D03*
X152654000Y-88646000D03*
X150114000Y-81026000D03*
X155194000Y-88646000D03*
X147574000Y-81026000D03*
X157734000Y-88646000D03*
X145034000Y-81026000D03*
D12*
X160274000Y-88646000D03*
%TD*%
D11*
%TO.C,U1*%
X166624000Y-92456000D03*
X138684000Y-77216000D03*
X164084000Y-92456000D03*
X141224000Y-77216000D03*
X161544000Y-92456000D03*
X143764000Y-77216000D03*
X159004000Y-92456000D03*
X146304000Y-77216000D03*
X156464000Y-92456000D03*
X148844000Y-77216000D03*
X153924000Y-92456000D03*
X151384000Y-77216000D03*
X151384000Y-92456000D03*
X153924000Y-77216000D03*
X148844000Y-92456000D03*
X156464000Y-77216000D03*
X146304000Y-92456000D03*
X159004000Y-77216000D03*
X143764000Y-92456000D03*
X161544000Y-77216000D03*
X141224000Y-92456000D03*
X164084000Y-77216000D03*
X138684000Y-92456000D03*
D12*
X166624000Y-77216000D03*
%TD*%
D13*
%TO.C,J1*%
X166624000Y-117856000D03*
X164084000Y-117856000D03*
X161544000Y-117856000D03*
X159004000Y-117856000D03*
X156464000Y-117856000D03*
X153924000Y-117856000D03*
X151384000Y-117856000D03*
X148844000Y-117856000D03*
X146304000Y-117856000D03*
X143764000Y-117856000D03*
X141224000Y-117856000D03*
X138684000Y-117856000D03*
%TD*%
M02*
